Coordinates
nRows=6
nColumns=38

# SIMM Motion File Header:
name Coordinates
datacolumns 38
datarows 6
otherdata 1
range 0.91300000000000003000 0.91800000000000004000

Units are S.I. units (second, meters, Newtons, ...)
Angles are in degrees.

endheader
time	pelvis_tilt	pelvis_list	pelvis_rotation	pelvis_tx	pelvis_ty	pelvis_tz	hip_flexion_r	hip_adduction_r	hip_rotation_r	knee_angle_r	ankle_angle_r	subtalar_angle_r	mtp_angle_r	hip_flexion_l	hip_adduction_l	hip_rotation_l	knee_angle_l	ankle_angle_l	subtalar_angle_l	mtp_angle_l	lumbar_extension	lumbar_bending	lumbar_rotation	arm_flex_r	arm_add_r	arm_rot_r	elbow_flex_r	pro_sup_r	wrist_flex_r	wrist_dev_r	arm_flex_l	arm_add_l	arm_rot_l	elbow_flex_l	pro_sup_l	wrist_flex_l	wrist_dev_l
      0.91300000000000003000	     -3.18418056638341530000	     -3.60236458771820440000	     -3.36467195150970790000	      0.94450930377229581000	      1.02803772971346930000	     -0.35971519489177511000	     31.25299413862131800000	      7.99913766426387780000	      3.68859604841977440000	    -12.95752706597722800000	     -9.00956285968294420000	      0.00000000000000000000	      0.00000000000000000000	    -13.91922494878611400000	      2.65975416690236830000	     -3.86377776191175040000	    -66.48368159377557200000	    -11.24320669965356600000	      0.00000000000000000000	      0.00000000000000000000	     -3.64587061037149860000	      9.02870317240737740000	     -2.90404273317635610000	    -40.19912660931169100000	    -21.29988878414110300000	    -13.91142118594975100000	     98.71222620894951700000	     91.56706091960020900000	      0.00000000000000000000	      0.00000000000000000000	    -22.32503381757328500000	    -16.61586932999211900000	      3.66329100080365540000	    129.53245161379118000000	     98.05120636323388800000	      0.00000000000000000000	      0.00000000000000000000
      0.91400000000000003000	     -3.15795478024048080000	     -3.64068389712632620000	     -3.34488508865424940000	      0.94455443751099633000	      1.02765804899002840000	     -0.35969766904007894000	     31.10095431186853100000	      8.03114120742029410000	      3.60658916878303740000	    -12.95897283247757800000	     -9.07111784254190390000	     -0.00000000000000000057	      0.00000000000000000407	    -13.69055787086101200000	      2.58735281709869370000	     -3.88691059255834140000	    -67.08361497872776600000	    -11.11375210868880900000	      0.00000000000000000102	     -0.00000000000000000058	     -3.67566606354642380000	      9.09036511041351150000	     -2.84226213285611350000	    -40.10185899313220400000	    -21.39931846392435900000	    -13.87236154575833200000	     98.63771190742522800000	     91.54539007343923600000	     -0.00000000000000000022	     -0.00000000000000000037	    -22.46418426655740300000	    -16.66849329948132000000	      3.61216230482669910000	    129.39393094159811000000	     97.97040595337968200000	     -0.00000000000000000016	      0.00000000000000000001
      0.91500000000000004000	     -3.13262883071248370000	     -3.67777244830628500000	     -3.32469849542884300000	      0.94459729028994444000	      1.02726814155272830000	     -0.35967885185731013000	     30.95190561046356200000	      8.06294246170713440000	      3.53065248666730190000	    -12.97427423518282700000	     -9.12408179475312760000	     -0.00000000000000000663	      0.00000000000000000691	    -13.45824290287286800000	      2.51578094322104250000	     -3.90778147158858950000	    -67.68203789066630800000	    -10.98134479825813700000	      0.00000000000000000431	     -0.00000000000000000830	     -3.70438864855948240000	      9.15046138564470550000	     -2.78018352654960220000	    -40.00290021355721100000	    -21.49809281530986700000	    -13.83273614964339200000	     98.56284887016292400000	     91.52441781145509500000	     -0.00000000000000000052	      0.00000000000000000067	    -22.60403521311894100000	    -16.72149370035692000000	      3.55848260896340250000	    129.25435888849898000000	     97.88952599239075900000	     -0.00000000000000000239	      0.00000000000000000064
      0.91600000000000004000	     -3.10817030475868930000	     -3.71369516521156310000	     -3.30421810381600030000	      0.94463783542442870000	      1.02686805585295060000	     -0.35965851333093707000	     30.80578544281254600000	      8.09468685292717360000	      3.46092470174291920000	    -13.00330597687546000000	     -9.16868841516212820000	     -0.00000000000000001765	      0.00000000000000000835	    -13.22233202829674600000	      2.44498438933246650000	     -3.92656027016305400000	    -68.27890873238568800000	    -10.84600959109153200000	      0.00000000000000000760	     -0.00000000000000002315	     -3.73211238207892260000	      9.20905770760527180000	     -2.71766864067283720000	    -39.90230107798490200000	    -21.59615164632064900000	    -13.79262591363996300000	     98.48769436073932600000	     91.50412729049172400000	     -0.00000000000000000085	      0.00000000000000000330	    -22.74455023133550200000	    -16.77485634626756900000	      3.50225138578965420000	    129.11376374326389000000	     97.80863301055319400000	     -0.00000000000000000335	      0.00000000000000000093
      0.91700000000000004000	     -3.08451496759271130000	     -3.74858499441637340000	     -3.28354839859031420000	      0.94467608438925332000	      1.02645787403012670000	     -0.35963639772884165000	     30.66247185659560200000	      8.12660343781434770000	      3.39760265691655050000	    -13.04591399507693000000	     -9.20429316609138940000	     -0.00000000000000003000	      0.00000000000000000731	    -12.98292873498084500000	      2.37482715288768320000	     -3.94344380541901000000	    -68.87418773495070900000	    -10.70776306668947000000	      0.00000000000000001163	     -0.00000000000000003926	     -3.75895203988626970000	      9.26629366913964780000	     -2.65456615876396330000	    -39.80013078787651900000	    -21.69343199062757000000	    -13.75213783006851300000	     98.41233092414529400000	     91.48449712808782400000	     -0.00000000000000000106	      0.00000000000000000823	    -22.88568765205199900000	    -16.82855712117568100000	      3.44347373369008470000	    128.97218303133016000000	     97.72781562931773200000	     -0.00000000000000000457	      0.00000000000000000096
      0.91800000000000004000	     -3.06161720725915920000	     -3.78252661591147540000	     -3.26281638535152000000	      0.94471201154271967000	      1.02603763871460420000	     -0.35961222015614985000	     30.52189175473978000000	      8.15889063248558880000	      3.34089044241657800000	    -13.10199721323240700000	     -9.23014668829059380000	     -0.00000000000000004306	      0.00000000000000000423	    -12.74011045218125900000	      2.30522996489967770000	     -3.95863144502841320000	    -69.46782986809975600000	    -10.56664577662944600000	      0.00000000000000001502	     -0.00000000000000005610	     -3.78500467399295190000	      9.32225394432109060000	     -2.59070320808338690000	    -39.69645185386360000000	    -21.78986026348431100000	    -13.71137723613557700000	     98.33683167969977000000	     91.46551716923943300000	     -0.00000000000000000130	      0.00000000000000001365	    -23.02740688234068100000	    -16.88258404154658300000	      3.38215676466701300000	    128.82965595617287000000	     97.64716531621169800000	     -0.00000000000000000562	      0.00000000000000000154
